<svg height="512" viewBox="0 0 64 64" width="512" xmlns="http://www.w3.org/2000/svg"><g id="Online"><rect fill="#46f8ff" height="58" rx="2" width="32" x="3" y="3"/><path d="m35 5v54a2.006 2.006 0 0 1 -2 2h-4a2.006 2.006 0 0 0 2-2v-54a2.006 2.006 0 0 0 -2-2h4a2.006 2.006 0 0 1 2 2z" fill="#00b6bd"/><path d="m30 3-.62 2.49a1.992 1.992 0 0 1 -1.94 1.51h-16.88a1.992 1.992 0 0 1 -1.94-1.51l-.62-2.49z" fill="#ff7956"/><path d="m30 3-.62 2.49a1.992 1.992 0 0 1 -1.94 1.51h-4a1.992 1.992 0 0 0 1.94-1.51l.62-2.49z" fill="#ff5023"/><path d="m53 32h-10a36.512 36.512 0 0 0 -1.16-9.35 17.885 17.885 0 0 0 5.6-3.65 17.892 17.892 0 0 1 5.56 13z" fill="#2488ff"/><path d="m43 32h10a17.892 17.892 0 0 1 -5.56 13 17.885 17.885 0 0 0 -5.6-3.65 36.512 36.512 0 0 0 1.16-9.35z" fill="#57a4ff"/><path d="m43 32h-16a36.512 36.512 0 0 1 1.16-9.35 18 18 0 0 0 13.68 0 36.512 36.512 0 0 1 1.16 9.35z" fill="#57a4ff"/><path d="m27 32h16a36.512 36.512 0 0 1 -1.16 9.35 18 18 0 0 0 -13.68 0 36.512 36.512 0 0 1 -1.16-9.35z" fill="#2488ff"/><path d="m47.44 19a17.885 17.885 0 0 1 -5.6 3.65c-1.41-5.19-3.94-8.65-6.84-8.65a17.916 17.916 0 0 1 12.44 5z" fill="#57a4ff"/><path d="m41.84 41.35a17.885 17.885 0 0 1 5.6 3.65 17.916 17.916 0 0 1 -12.44 5c2.9 0 5.43-3.46 6.84-8.65z" fill="#2488ff"/><path d="m41.84 22.65a18 18 0 0 1 -13.68 0c1.41-5.19 3.94-8.65 6.84-8.65s5.43 3.46 6.84 8.65z" fill="#2488ff"/><path d="m35 40a17.9 17.9 0 0 1 6.84 1.35c-1.41 5.19-3.94 8.65-6.84 8.65s-5.43-3.46-6.84-8.65a17.9 17.9 0 0 1 6.84-1.35z" fill="#57a4ff"/><path d="m35 14c-2.9 0-5.43 3.46-6.84 8.65a17.885 17.885 0 0 1 -5.6-3.65 17.916 17.916 0 0 1 12.44-5z" fill="#57a4ff"/><path d="m28.16 41.35c1.41 5.19 3.94 8.65 6.84 8.65a17.916 17.916 0 0 1 -12.44-5 17.885 17.885 0 0 1 5.6-3.65z" fill="#2488ff"/><path d="m28.16 22.65a36.512 36.512 0 0 0 -1.16 9.35h-10a17.892 17.892 0 0 1 5.56-13 17.885 17.885 0 0 0 5.6 3.65z" fill="#2488ff"/><path d="m27 32a36.512 36.512 0 0 0 1.16 9.35 17.885 17.885 0 0 0 -5.6 3.65 17.892 17.892 0 0 1 -5.56-13z" fill="#57a4ff"/><path d="m36 13.05v-8.05a3.009 3.009 0 0 0 -3-3h-28a3.009 3.009 0 0 0 -3 3v54a3.009 3.009 0 0 0 3 3h28a3.009 3.009 0 0 0 3-3v-8.05a18.975 18.975 0 0 0 0-37.9zm15.95 17.95h-7.97a37.784 37.784 0 0 0 -.97-7.79 19.225 19.225 0 0 0 4.37-2.83 16.943 16.943 0 0 1 4.57 10.62zm-6.02-12.01a16.516 16.516 0 0 1 -3.46 2.27 17.458 17.458 0 0 0 -2.83-5.6 17.015 17.015 0 0 1 6.29 3.33zm-18.94 4.22a37.784 37.784 0 0 0 -.97 7.79h-7.97a16.943 16.943 0 0 1 4.57-10.62 19.225 19.225 0 0 0 4.37 2.83zm-2.92-4.22a17.015 17.015 0 0 1 6.29-3.33 17.458 17.458 0 0 0 -2.83 5.6 16.516 16.516 0 0 1 -3.46-2.27zm1.95 14.01a37.784 37.784 0 0 0 .97 7.79 19.225 19.225 0 0 0 -4.37 2.83 16.943 16.943 0 0 1 -4.57-10.62zm1.51 9.74a17.458 17.458 0 0 0 2.83 5.6 17.015 17.015 0 0 1 -6.29-3.33 16.516 16.516 0 0 1 3.46-2.27zm.49-9.74h13.96a35.694 35.694 0 0 1 -.83 7.04 18.7 18.7 0 0 0 -12.3 0 35.694 35.694 0 0 1 -.83-7.04zm0-2a35.694 35.694 0 0 1 .83-7.04 18.7 18.7 0 0 0 12.3 0 35.694 35.694 0 0 1 .83 7.04zm12.61-8.98a16.662 16.662 0 0 1 -11.26 0c1.36-4.4 3.54-7.02 5.63-7.02s4.27 2.62 5.63 7.02zm-11.91-18.02-.31 1.24a1 1 0 0 1 -.97.76h-16.88a1 1 0 0 1 -.97-.76l-.31-1.24zm5.28 55a1 1 0 0 1 -1 1h-28a1 1 0 0 1 -1-1v-54a1 1 0 0 1 1-1h2.22l.43 1.73a3 3 0 0 0 2.91 2.27h16.88a3 3 0 0 0 2.91-2.27l.43-1.73h2.22a1 1 0 0 1 1 1v8.05a18.975 18.975 0 0 0 0 37.9zm1-10c-2.09 0-4.27-2.62-5.63-7.02a16.662 16.662 0 0 1 11.26 0c-1.36 4.4-3.54 7.02-5.63 7.02zm4.64-.66a17.458 17.458 0 0 0 2.83-5.6 16.516 16.516 0 0 1 3.46 2.27 17.015 17.015 0 0 1 -6.29 3.33zm7.74-4.72a19.225 19.225 0 0 0 -4.37-2.83 37.784 37.784 0 0 0 .97-7.79h7.97a16.943 16.943 0 0 1 -4.57 10.62z"/><path d="m10 56h18v2h-18z"/><path d="m6 56h2v2h-2z"/><path d="m30 56h2v2h-2z"/><path d="m39.47 6.852h4v2h-4z" transform="matrix(.259 -.966 .966 .259 23.153 45.877)"/><path d="m45.5 9.349h4v2h-4z" transform="matrix(.5 -.866 .866 .5 14.791 46.314)"/><path d="m50.678 13.322h4v2h-4z" transform="matrix(.707 -.707 .707 .707 5.302 41.444)"/><path d="m54.651 18.5h4v2h-4z" transform="matrix(.866 -.5 .5 .866 -2.161 30.936)"/><path d="m57.148 24.53h4v2h-4z" transform="matrix(.966 -.259 .259 .966 -4.593 16.184)"/><path d="m58 31h4v2h-4z"/><path d="m58.148 36.47h2v4h-2z" transform="matrix(.259 -.966 .966 .259 6.676 85.642)"/><path d="m55.65 42.5h2v4h-2z" transform="matrix(.5 -.866 .866 .5 -10.212 71.313)"/><path d="m51.678 47.678h2v4h-2z" transform="matrix(.707 -.707 .707 .707 -19.699 51.799)"/><path d="m46.5 51.651h2v4h-2z" transform="matrix(.866 -.5 .5 .866 -20.461 30.936)"/><path d="m40.471 54.148h2v4h-2z" transform="matrix(.966 -.259 .259 .966 -13.123 12.651)"/></g></svg>